<svg width="272" height="72" viewBox="0 0 272 72" fill="none" xmlns="http://www.w3.org/2000/svg">
<path d="M28.5047 34.7836L68.3111 34.4068C68.3111 34.2813 68.3111 34.1557 68.3111 34.0301C68.3111 33.0255 68.3111 32.1465 68.1856 31.142L30.0116 30.7652C29.886 30.7652 29.6348 30.6397 29.6348 30.3885C29.6348 30.2629 29.7604 30.0118 30.0116 30.0118L68.06 29.6351C67.9344 28.5049 67.6833 27.5004 67.5577 26.3702L31.3928 26.2446C31.2673 26.2446 31.0161 26.1191 31.0161 25.8679C31.0161 25.7423 31.1417 25.4912 31.3928 25.4912L67.0554 25.1145C66.8043 23.9843 66.4275 22.9797 66.0508 21.8496L32.7741 21.4729C32.6486 21.4729 32.3974 21.3473 32.3974 21.0962C32.3974 20.9706 32.523 20.7194 32.7741 20.7194L65.423 20.3427C60.2745 8.53892 48.2195 0 34.1554 0C17.4543 0 3.51578 12.0549 0.627618 27.8771L49.6008 27.2492L48.973 29.3839L0.502045 28.5049C0.250901 29.7607 0.125328 31.142 0.125328 32.5232L48.2195 31.8954L47.4661 33.9045L-0.000244141 33.1511C-0.000244141 33.5278 -0.000244141 33.779 -0.000244141 34.1557C-0.000244141 35.1603 -0.000244141 36.1648 0.125328 37.0439L46.7127 36.416L46.0848 38.5507L0.250901 37.7973C0.376473 39.1786 0.627618 40.4343 0.878762 41.69L45.2058 41.0622L44.5779 43.1969L1.00433 42.3179C1.38105 43.6992 1.75777 44.9549 2.26006 46.2106L43.8245 45.5828L43.1967 47.7175L2.5112 46.9641C3.01349 48.3454 3.64135 49.6011 4.39479 50.8568L42.4432 50.229L41.8154 52.3637L4.77151 51.6102C5.65051 52.9915 6.52952 54.3728 7.5341 55.503L40.6852 54.7496L40.0573 56.8843L8.03639 56.1309C14.315 63.5396 23.6074 68.1858 34.0299 68.1858C48.973 68.1858 61.7814 58.5167 66.302 45.0805L25.4909 44.7038C25.3654 44.7038 25.1142 44.5782 25.1142 44.327C25.1142 44.2015 25.2398 43.9503 25.4909 43.9503L66.8043 43.5736C67.0554 42.569 67.4321 41.4389 67.5577 40.3087L26.9978 39.932C26.8722 39.932 26.6211 39.8064 26.6211 39.5553C26.6211 39.4297 26.7467 39.1786 26.9978 39.1786L67.8088 38.8019C67.9344 37.7973 68.06 36.6671 68.06 35.537L28.3791 35.1603C28.2535 35.1603 28.0024 35.0347 28.0024 34.7836C28.128 34.9091 28.3791 34.7836 28.5047 34.7836Z" fill="#FF2B00"/>
<path d="M146.417 21.2218H136.246L122.182 45.0806H131.725L133.86 40.8111H139.762L140.013 45.0806H148.301L146.417 21.2218ZM136.371 35.1603L139.511 28.3794L139.636 35.1603H136.371Z" fill="#FF2B00"/>
<path d="M121.177 29.1329C120.8 30.263 120.173 30.5142 118.54 30.5142H116.531L117.536 27.3748H119.419C120.8 27.3748 121.554 28.1283 121.177 29.1329ZM129.214 28.2539C129.716 25.7424 128.712 21.2218 120.675 21.2218H110.504L102.969 45.0806H112.01H112.136L115.15 35.5371L118.163 45.0806H127.456L123.061 35.2859C127.079 33.9046 128.46 31.7699 129.214 28.2539Z" fill="#FF2B00"/>
<path d="M109.122 21.2218H87.1469L84.761 28.6306H91.7931L86.5191 45.0806H95.5603L100.834 28.6306H106.862L109.122 21.2218Z" fill="#FF2B00"/>
<path d="M194.386 28.1283L196.521 21.2218H179.192L171.657 45.0806H188.986L190.995 38.6764H182.457L183.21 36.2905H191.749L193.632 30.263H185.094L185.847 28.1283H194.386Z" fill="#FF2B00"/>
<path d="M161.235 45.0806H169.774L177.308 21.2218H168.267L165.127 31.7699L162.49 21.2218H153.826L146.292 45.0806H155.333L158.472 34.4069L161.235 45.0806Z" fill="#FF2B00"/>
<path d="M200.539 22.4774V21.5984H201.167C201.418 21.5984 201.794 21.5984 201.794 21.9751C201.794 22.3518 201.418 22.4774 201.167 22.4774H200.539ZM200.539 22.8541H201.041L201.794 23.9842H202.297L201.543 22.7285C201.92 22.7285 202.297 22.4774 202.297 21.9751C202.297 21.4728 201.92 21.2216 201.292 21.2216H200.288V23.9842H200.664V22.8541H200.539ZM201.041 24.9888C202.297 24.9888 203.427 23.9842 203.427 22.6029C203.427 21.2217 202.297 20.2171 201.041 20.2171C199.785 20.2171 198.655 21.2217 198.655 22.6029C198.655 23.9842 199.785 24.9888 201.041 24.9888ZM199.157 22.6029C199.157 21.4728 200.036 20.5938 201.041 20.5938C202.171 20.5938 202.925 21.4728 202.925 22.6029C202.925 23.7331 202.046 24.6121 201.041 24.6121C199.911 24.6121 199.157 23.7331 199.157 22.6029Z" fill="#FF2B00"/>
<path d="M83.7565 68.0603L86.1423 56.8843H88.5282L86.1423 68.0603H83.7565Z" fill="#7D878F"/>
<path d="M89.0307 66.5534C89.0307 66.4278 89.0307 66.1767 89.1563 66.0511L90.0353 61.9072H88.654L89.0307 60.0236H90.412L90.9143 57.7633H93.049L92.5467 60.0236H94.1792L93.8025 61.9072H92.17L91.4166 65.4232C91.4166 65.5488 91.4166 65.5488 91.4166 65.6744C91.4166 66.0511 91.6677 66.4278 92.17 66.4278C92.4212 66.4278 92.6723 66.3022 92.7979 66.3022L92.9235 68.0602C92.6723 68.3114 92.17 68.437 91.5422 68.437C89.9097 68.3114 89.0307 67.6835 89.0307 66.5534Z" fill="#7D878F"/>
<path d="M95.9371 61.4048L95.1837 60.6514C95.8116 60.4002 96.565 59.898 96.8162 59.2701H96.6906C96.1883 59.2701 95.686 58.8934 95.686 58.1399C95.686 57.3865 96.4394 56.6331 97.1929 56.6331C97.8207 56.6331 98.4486 57.1354 98.4486 58.0144C98.4486 59.3957 97.3184 60.777 95.9371 61.4048Z" fill="#7D878F"/>
<path d="M96.942 66.8044L98.0721 65.2976C98.5744 65.9254 99.7046 66.5533 100.96 66.5533C101.714 66.5533 102.09 66.1766 102.09 65.6743C102.09 64.5441 97.9465 64.7953 97.9465 62.4094C97.9465 61.0281 99.0767 59.6468 101.337 59.6468C102.718 59.6468 103.974 60.1491 104.727 60.9025L103.597 62.2838C103.221 61.7815 102.216 61.2793 101.211 61.2793C100.458 61.2793 100.081 61.656 100.081 62.0327C100.081 63.0373 104.225 62.7861 104.225 65.2976C104.225 66.8044 102.969 68.1857 100.709 68.1857C99.3278 68.3113 97.9465 67.809 96.942 66.8044Z" fill="#7D878F"/>
<path d="M117.033 68.0603L118.038 63.2885H112.764L111.759 68.0603H109.373L111.759 56.8843H114.145L113.266 61.2794H118.54L119.419 56.8843H121.931L119.419 68.0603H117.033Z" fill="#7D878F"/>
<path d="M126.828 66.1766L127.079 65.172C126.702 64.6697 126.074 64.4186 125.195 64.4186C124.316 64.4186 123.689 65.0464 123.689 65.7999C123.689 66.5533 124.316 66.93 125.195 66.93C125.823 66.8045 126.451 66.5533 126.828 66.1766ZM126.451 68.0602L126.577 67.1812C125.949 67.809 125.195 68.1858 124.191 68.1858C122.81 68.1858 121.554 67.4323 121.554 65.7999C121.554 63.9163 122.935 62.7861 124.568 62.7861C125.698 62.7861 126.577 63.1629 127.33 63.9163L127.581 63.0373C127.581 62.9117 127.581 62.7861 127.581 62.6606C127.581 61.9071 126.828 61.4049 125.698 61.4049C124.819 61.4049 124.065 61.656 123.437 62.1583L122.935 60.6514C123.94 60.0236 124.944 59.6468 126.2 59.6468C128.084 59.6468 129.842 60.4003 129.842 62.1583C129.842 62.2839 129.842 62.7861 129.716 63.0373L128.586 67.9346H126.451V68.0602Z" fill="#7D878F"/>
<path d="M130.344 68.0602L132.102 59.898H134.237L133.985 60.9026C134.739 60.1491 135.618 59.6468 136.874 59.6468L136.371 61.7816C136.246 61.7816 135.995 61.656 135.618 61.656C134.864 61.656 134.111 62.0327 133.609 62.6606L132.479 67.9346H130.344V68.0602Z" fill="#7D878F"/>
<path d="M138.757 64.4187C138.757 65.5488 139.511 66.3023 140.515 66.3023C141.269 66.3023 141.897 65.9255 142.399 65.2977L143.027 62.5351C142.65 62.0328 142.022 61.6561 141.143 61.6561C139.762 61.6561 138.757 63.0374 138.757 64.4187ZM143.403 61.0282L144.282 56.8843H146.417L143.906 68.0603H141.771L142.022 67.0557C141.394 67.8091 140.515 68.3114 139.636 68.3114C137.753 68.3114 136.497 67.0557 136.497 64.921C136.497 62.4095 138.004 59.7725 140.766 59.7725C141.897 59.7725 142.901 60.2748 143.403 61.0282Z" fill="#7D878F"/>
<path d="M152.696 68.0603L154.705 59.0191H151.44L151.943 56.8843H160.858L160.356 59.0191H157.091L155.082 68.0603H152.696Z" fill="#7D878F"/>
<path d="M164.876 63.5395C164.876 62.4093 164.123 61.6559 162.993 61.6559C161.611 61.6559 160.607 63.0372 160.607 64.4185C160.607 65.5486 161.36 66.3021 162.49 66.3021C163.872 66.4277 164.876 65.0464 164.876 63.5395ZM158.346 64.5441C158.346 62.0326 160.356 59.7723 162.993 59.7723C165.63 59.7723 167.011 61.2792 167.011 63.4139C167.011 65.9254 165.002 68.1857 162.365 68.1857C159.728 68.3112 158.346 66.6788 158.346 64.5441Z" fill="#7D878F"/>
<path d="M171.532 66.1765L173.038 64.4185C173.792 65.4231 175.299 66.1765 176.806 66.1765C178.061 66.1765 178.564 65.5486 178.564 64.9208C178.564 63.2883 173.164 63.6651 173.164 60.4002C173.164 58.5166 174.796 56.7586 177.559 56.7586C179.317 56.7586 181.075 57.3864 182.08 58.5166L180.573 60.2746C179.694 59.27 178.313 58.8933 177.182 58.8933C176.303 58.8933 175.675 59.3956 175.675 60.0235C175.675 61.5303 181.201 61.2792 181.201 64.5441C181.201 66.5532 179.568 68.4368 176.806 68.4368C174.42 68.3112 172.411 67.4322 171.532 66.1765Z" fill="#7D878F"/>
<path d="M182.205 66.5533C182.205 66.4277 182.205 66.1765 182.331 66.051L183.21 61.9071H181.828L182.205 60.0235H183.586L184.089 57.7632H186.223L185.721 60.0235H187.354L186.977 61.9071H185.344L184.591 65.4231C184.591 65.5487 184.591 65.5487 184.591 65.6743C184.591 66.051 184.842 66.4277 185.344 66.4277C185.596 66.4277 185.847 66.3021 185.972 66.3021L186.098 68.0601C185.847 68.3113 185.344 68.4368 184.717 68.4368C183.21 68.3113 182.205 67.6834 182.205 66.5533Z" fill="#7D878F"/>
<path d="M193.632 63.5395C193.632 62.4093 192.879 61.6559 191.749 61.6559C190.367 61.6559 189.363 63.0372 189.363 64.4185C189.363 65.5486 190.116 66.3021 191.246 66.3021C192.628 66.4277 193.632 65.0464 193.632 63.5395ZM187.102 64.5441C187.102 62.0326 189.112 59.7723 191.749 59.7723C194.386 59.7723 195.767 61.2792 195.767 63.4139C195.767 65.9254 193.758 68.1857 191.121 68.1857C188.609 68.3112 187.102 66.6788 187.102 64.5441Z" fill="#7D878F"/>
<path d="M203.301 63.5395C203.301 62.4094 202.548 61.656 201.543 61.656C200.79 61.656 200.162 62.0327 199.66 62.6605L199.032 65.4231C199.409 65.9254 200.036 66.3021 200.915 66.3021C202.297 66.4277 203.301 65.0464 203.301 63.5395ZM198.655 66.93L197.776 71.0739H195.641L198.153 59.898H200.288L200.036 60.9025C200.664 60.1491 201.543 59.6468 202.548 59.6468C204.431 59.6468 205.562 60.9025 205.562 63.0373C205.562 65.4231 204.055 68.1857 201.292 68.1857C200.162 68.3113 199.283 67.809 198.655 66.93Z" fill="#7D878F"/>
<path d="M216.863 59.2702L214.101 64.0419H217.617L216.863 59.2702ZM217.993 68.0603L217.742 66.1767H212.97L211.84 68.0603H208.952L215.733 56.8843H218.747L220.63 68.0603H217.993Z" fill="#7D878F"/>
<path d="M228.29 68.0603L230.3 59.0191H226.909L227.411 56.8843H236.327L235.95 59.0191H232.685L230.676 68.0603H228.29Z" fill="#7D878F"/>
<path d="M234.067 68.0602L235.825 59.898H237.959L237.708 60.9026C238.462 60.1491 239.341 59.6468 240.596 59.6468L240.094 61.7816C239.968 61.7816 239.717 61.656 239.341 61.656C238.587 61.656 237.834 62.0327 237.331 62.6606L236.201 67.9346H234.067V68.0602Z" fill="#7D878F"/>
<path d="M245.368 66.1766L245.619 65.172C245.243 64.6697 244.615 64.4186 243.736 64.4186C242.857 64.4186 242.229 65.0464 242.229 65.7999C242.229 66.5533 242.857 66.93 243.736 66.93C244.364 66.8045 244.991 66.5533 245.368 66.1766ZM244.991 68.0602L245.117 67.1812C244.489 67.809 243.736 68.1857 242.731 68.1857C241.35 68.1857 240.094 67.4323 240.094 65.7999C240.094 63.9163 241.475 62.7861 243.108 62.7861C244.238 62.7861 245.117 63.1629 245.87 63.9163L246.122 63.0373C246.122 62.9117 246.122 62.7861 246.122 62.6606C246.122 61.9071 245.368 61.4048 244.238 61.4048C243.359 61.4048 242.606 61.656 241.978 62.1583L241.475 60.6514C242.48 60.0235 243.485 59.6468 244.74 59.6468C246.624 59.6468 248.382 60.4003 248.382 62.1583C248.382 62.2838 248.382 62.7861 248.256 63.0373L247.126 67.9346H244.991V68.0602Z" fill="#7D878F"/>
<path d="M254.409 68.0602L255.539 63.1629C255.539 63.0373 255.665 62.7861 255.665 62.6606C255.665 61.9071 255.037 61.656 254.284 61.656C253.53 61.656 252.902 62.1583 252.4 62.535L251.144 68.0602H249.01L250.768 59.898H252.902L252.651 60.9026C253.279 60.2747 254.158 59.6468 255.414 59.6468C256.921 59.6468 257.925 60.4003 257.925 61.656C257.925 61.7816 257.925 62.1583 257.8 62.2838L256.544 67.809H254.409V68.0602Z" fill="#7D878F"/>
<path d="M265.209 63.2886V63.163C265.209 62.284 264.581 61.6561 263.325 61.6561C262.195 61.6561 261.316 62.5352 261.19 63.4142H265.209V63.2886ZM258.804 64.6699C258.804 62.0329 260.813 59.7726 263.45 59.7726C265.585 59.7726 267.092 61.1539 267.092 63.4142C267.092 63.9165 266.967 64.5443 266.967 64.7955H260.939V65.0466C260.939 65.6745 261.692 66.679 263.199 66.679C263.953 66.679 264.706 66.4279 265.209 66.0512L265.836 67.558C265.083 68.0603 263.953 68.4371 262.948 68.4371C260.437 68.3115 258.804 66.9302 258.804 64.6699Z" fill="#7D878F"/>
<path d="M266.841 67.0558C266.841 66.3023 267.469 65.5489 268.348 65.5489C268.976 65.5489 269.604 66.1768 269.604 66.8046C269.604 67.5581 268.976 68.3115 268.097 68.3115C267.469 68.3115 266.841 67.6836 266.841 67.0558Z" fill="#7D878F"/>
<path d="M270.357 58.6424H269.855L269.729 59.3958H270.357C270.734 59.3958 270.859 59.1446 270.859 58.8935C270.734 58.7679 270.608 58.6424 270.357 58.6424ZM270.357 60.6515L269.98 59.7725H269.603L269.352 60.6515H268.976L269.478 58.2656H270.357C270.859 58.2656 271.11 58.5168 271.11 58.8935C271.11 59.2702 270.734 59.6469 270.357 59.6469L270.734 60.5259H270.357V60.6515ZM269.98 57.7633C269.101 57.7633 268.348 58.5168 268.348 59.5214C268.348 60.4004 269.101 61.2794 269.98 61.2794C270.859 61.2794 271.738 60.5259 271.738 59.5214C271.738 58.5168 270.985 57.7633 269.98 57.7633ZM269.98 61.5305C268.85 61.5305 267.971 60.6515 267.971 59.5214C267.971 58.3912 268.85 57.5122 269.98 57.5122C271.11 57.5122 271.989 58.3912 271.989 59.5214C272.115 60.6515 271.11 61.5305 269.98 61.5305Z" fill="#7D878F"/>
</svg>
