<svg xmlns="http://www.w3.org/2000/svg" width="160" height="72" viewBox="0 0 160 72" fill="none">
<path d="M22.4478 27.4149L53.6836 27.1284C53.6836 27.0328 53.6836 26.9373 53.6836 26.8418C53.6836 26.0776 53.6836 25.3134 53.5881 24.5493L23.594 24.2627C23.403 24.2627 23.3075 24.1672 23.3075 23.9761C23.3075 23.8806 23.403 23.6896 23.594 23.6896L53.4925 23.4985C53.397 22.6388 53.206 21.7791 53.0149 20.9194L24.6448 20.6328C24.5493 20.6328 24.3582 20.5373 24.3582 20.3463C24.3582 20.1552 24.4537 20.0597 24.6448 20.0597L52.7284 19.7731C52.5373 18.9134 52.2507 18.0537 51.8687 17.194L25.791 17.003C25.6955 17.003 25.5045 16.9075 25.5045 16.7164C25.5045 16.6209 25.6 16.4299 25.791 16.4299L51.4866 16.2388C47.3791 6.68657 37.9224 0 26.8418 0C13.6597 0 2.77015 9.45672 0.477612 21.8746L38.9731 21.3015L38.4955 22.9254L0.38209 22.4478C0.191045 23.4985 0.0955224 24.5493 0.0955224 25.6L37.9224 25.0269L37.4448 26.6507L0 26.0776C0 26.3642 0 26.5552 0 26.8418C0 27.606 0 28.3701 0.0955224 29.1343L36.6806 28.6567L36.203 30.2806L0.191045 29.7075C0.286567 30.7582 0.477612 31.809 0.668657 32.7642L35.6298 32.2866L35.1522 33.9104L0.764179 33.3373C1.05075 34.3881 1.33731 35.4388 1.7194 36.394L34.3881 35.8209L33.9104 37.4448L2.00597 36.9672C2.48358 38.0179 2.96119 39.0687 3.53433 40.0239L33.4328 39.4507L32.9552 41.0746L3.72537 40.597C4.39403 41.6478 5.06269 42.6985 5.92239 43.7493L32 43.1761L31.5224 44.8L6.30448 44.1313C11.2716 49.9582 18.6269 53.6836 26.8418 53.6836C38.591 53.6836 48.6209 46.0418 52.2507 35.5343L20.1552 35.2478C20.0597 35.2478 19.8687 35.1522 19.8687 34.9612C19.8687 34.8657 19.9642 34.6746 20.1552 34.6746L52.6328 34.3881C52.9194 33.5284 53.1104 32.6687 53.206 31.809L21.3015 31.5224C21.206 31.5224 21.0149 31.4269 21.0149 31.2358C21.0149 31.1403 21.1104 30.9493 21.3015 30.9493L53.397 30.6627C53.4925 29.803 53.5881 28.9433 53.6836 28.1791L22.4478 27.8925C22.3522 27.8925 22.1612 27.797 22.1612 27.606C22.1612 27.4149 22.2567 27.4149 22.4478 27.4149Z" fill="white"/>
<path d="M115.104 16.7164H107.081L96 35.4388H103.546L105.266 32.0955H109.946L110.137 35.4388H116.633L115.104 16.7164ZM107.272 27.7015L109.755 22.3523L109.851 27.7015H107.272Z" fill="white"/>
<path d="M95.3313 22.9254C95.0447 23.7851 94.4716 23.9761 93.3253 23.9761H91.7014L92.4656 21.4926H93.8985C94.9492 21.5881 95.6179 22.0657 95.3313 22.9254ZM101.636 22.2567C102.113 20.3463 101.254 16.7164 94.8537 16.7164H86.9253L81.0029 35.4388H88.0716H88.1671L90.4596 27.8926L92.8477 35.4388H100.107L96.5731 27.7015C99.9164 26.7463 101.063 25.0269 101.636 22.2567Z" fill="white"/>
<path d="M85.8746 16.7164H68.4895L66.6746 22.4478H72.2149L68.1074 35.4388H75.176L79.2835 22.4478H84.0596L85.8746 16.7164Z" fill="white"/>
<path d="M152.836 22.0657L154.555 16.7164H140.991L135.069 35.4388H148.633L150.257 30.3761H143.475L144.048 28.5612H150.83L152.263 23.7851H145.576L146.149 22.0657H152.836Z" fill="white"/>
<path d="M126.758 35.4388H133.445L139.463 16.7164H132.299L129.815 25.0269L127.713 16.7164H121.027L115.104 35.4388H122.173L124.657 27.0328L126.758 35.4388Z" fill="white"/>
<path d="M157.707 17.6716V17.003H158.185C158.376 17.003 158.663 17.0985 158.663 17.2895C158.663 17.5761 158.376 17.6716 158.185 17.6716H157.707ZM157.707 17.9582H158.09L158.663 18.9134H159.045L158.472 17.9582C158.758 17.9582 159.045 17.7671 159.045 17.385C159.045 17.003 158.758 16.8119 158.281 16.8119H157.421V19.0089H157.707V17.9582ZM158.09 19.6776C159.14 19.6776 160 18.9134 160 17.7671C160 16.7164 159.14 15.8567 158.09 15.8567C157.039 15.8567 156.179 16.6209 156.179 17.7671C156.275 18.9134 157.134 19.6776 158.09 19.6776ZM156.561 17.7671C156.561 16.9074 157.23 16.2388 158.09 16.2388C158.949 16.2388 159.618 16.9074 159.618 17.7671C159.618 18.6268 158.949 19.2955 158.09 19.2955C157.23 19.391 156.561 18.7224 156.561 17.7671Z" fill="white"/>
<path d="M2.2926 69.0627L4.20305 60.2746H6.1135L4.10753 69.0627H2.2926Z" fill="white"/>
<path d="M6.39997 67.9164C6.39997 67.8209 6.39997 67.6299 6.49549 67.4388L7.16415 64.1911H6.1134L6.39997 62.7582H7.45072L7.83281 61.0388H9.55221L9.17012 62.7582H10.5074L10.2209 64.1911H8.78803L8.2149 66.9612C8.2149 67.0567 8.2149 67.1523 8.2149 67.1523C8.2149 67.5343 8.40594 67.7254 8.78803 67.7254C8.97907 67.7254 9.17012 67.6299 9.26564 67.6299L9.36116 68.9672C9.17012 69.1582 8.69251 69.2537 8.31042 69.2537C7.16415 69.2537 6.39997 68.8717 6.39997 67.9164Z" fill="white"/>
<path d="M11.8447 63.9045L11.2716 63.2359C11.7492 63.0448 12.3224 62.5672 12.6089 62.0896C12.6089 62.0896 12.5134 62.0896 12.4179 62.0896C11.9403 62.0896 11.5582 61.803 11.5582 61.2299C11.5582 60.5612 12.1313 60.0836 12.7044 60.0836C13.2776 60.0836 13.7552 60.4657 13.7552 61.1344C13.7552 62.2806 12.8955 63.3314 11.8447 63.9045Z" fill="white"/>
<path d="M12.609 68.1074L13.5642 66.9612C13.9463 67.4388 14.9015 68.0119 15.7612 68.0119C16.3344 68.0119 16.7165 67.7253 16.7165 67.3433C16.7165 66.4836 13.4687 66.6746 13.4687 64.7642C13.4687 63.6179 14.4239 62.5671 16.1433 62.5671C17.1941 62.5671 18.2448 62.9492 18.818 63.6179L17.9583 64.7642C17.6717 64.3821 16.9075 63.9045 16.0478 63.9045C15.4747 63.9045 15.0926 64.191 15.0926 64.4776C15.0926 65.2418 18.3404 65.0507 18.3404 67.0567C18.3404 68.2985 17.2896 69.2537 15.5702 69.2537C14.5195 69.2537 13.3732 68.8716 12.609 68.1074Z" fill="white"/>
<path d="M28.3702 69.0627L29.2299 65.4328H25.0269L24.2627 69.0627H22.3523L24.2627 60.2746H26.1732L25.409 63.7134H29.612L30.3762 60.2746H32.1911L30.2807 69.0627H28.3702Z" fill="white"/>
<path d="M36.1075 67.6299L36.2986 66.8657C36.012 66.4836 35.5344 66.2926 34.8657 66.2926C34.1016 66.2926 33.6239 66.7702 33.6239 67.3433C33.6239 67.9165 34.1016 68.203 34.7702 68.203C35.3433 68.1075 35.821 67.9165 36.1075 67.6299ZM35.821 69.0627L35.9165 68.3941C35.4389 68.8717 34.8657 69.1582 34.006 69.1582C32.9553 69.1582 31.9045 68.5851 31.9045 67.3433C31.9045 65.9105 32.9553 65.0508 34.2926 65.0508C35.2478 65.0508 35.9165 65.3373 36.4896 65.9105L36.6807 65.1463C36.6807 65.0508 36.6807 64.9553 36.6807 64.8597C36.6807 64.2866 36.1075 63.9045 35.1523 63.9045C34.4836 63.9045 33.9105 64.0956 33.3374 64.4776L32.9553 63.2359C33.7195 62.6627 34.5792 62.4717 35.4389 62.4717C36.9672 62.4717 38.3045 63.0448 38.3045 64.4776C38.3045 64.6687 38.3045 64.9553 38.209 65.1463L37.3493 68.9672H35.821V69.0627Z" fill="white"/>
<path d="M38.8777 69.0627L40.3105 62.6627H42.0299L41.8389 63.5224C42.412 62.9492 43.0807 62.5671 44.1314 62.5671L43.7493 64.191C43.6538 64.191 43.3672 64.0955 43.1762 64.0955C42.5075 64.0955 41.9344 64.4776 41.5523 64.8597L40.5971 69.0627H38.8777Z" fill="white"/>
<path d="M45.4687 66.2926C45.4687 67.2478 46.0419 67.8209 46.9016 67.8209C47.4747 67.8209 48.0478 67.5344 48.3344 67.0567L48.812 64.8597C48.5254 64.3821 47.9523 64.0955 47.2837 64.0955C46.2329 64.0955 45.4687 65.1463 45.4687 66.2926ZM49.0986 63.6179L49.7672 60.3702H51.5822L49.6717 69.1582H47.9523L48.1434 68.3941C47.5702 69.0627 46.9971 69.3493 46.2329 69.3493C44.8001 69.3493 43.8448 68.3941 43.8448 66.6747C43.8448 64.7642 45.0866 62.6627 47.1881 62.6627C47.9523 62.5672 48.7165 62.9493 49.0986 63.6179Z" fill="white"/>
<path d="M56.4538 69.0627L58.0776 61.994H55.4985L55.7851 60.2746H62.8538L62.4717 61.994H59.8926L58.3642 69.0627H56.4538Z" fill="white"/>
<path d="M66.006 65.5283C66.006 64.5731 65.4329 64 64.5731 64C63.4269 64 62.6627 65.0507 62.6627 66.197C62.6627 67.1522 63.2358 67.7253 64.1911 67.7253C65.2418 67.8209 66.006 66.6746 66.006 65.5283ZM60.8478 66.388C60.8478 64.3821 62.3761 62.5671 64.5731 62.5671C66.5791 62.5671 67.7254 63.8089 67.7254 65.4328C67.7254 67.4388 66.197 69.2537 64 69.2537C61.994 69.2537 60.8478 68.0119 60.8478 66.388Z" fill="white"/>
<path d="M71.2596 67.6298L72.4059 66.197C72.9791 67.0567 74.1253 67.5343 75.3671 67.5343C76.3223 67.5343 76.7044 66.9612 76.7044 66.5791C76.7044 65.3373 72.4059 65.5283 72.4059 63.0447C72.4059 61.6119 73.6477 60.1791 75.8447 60.1791C77.2776 60.1791 78.5193 60.6567 79.379 61.6119L78.2328 62.9492C77.5641 62.185 76.5134 61.803 75.5582 61.803C74.8895 61.803 74.4119 62.185 74.4119 62.6627C74.4119 63.8089 78.7104 63.7134 78.7104 66.197C78.7104 67.8209 77.3731 69.2537 75.2716 69.2537C73.5522 69.2537 72.0238 68.585 71.2596 67.6298Z" fill="white"/>
<path d="M79.6656 67.9164C79.6656 67.8209 79.6656 67.6299 79.7611 67.4388L80.4298 64.1911H79.379L79.6656 62.7582H80.7163L81.0984 61.0388H82.8178L82.4357 62.7582H83.7731L83.4865 64.1911H82.1492L81.576 66.9612C81.576 67.0567 81.576 67.1523 81.576 67.1523C81.576 67.5343 81.7671 67.7254 82.1492 67.7254C82.3402 67.7254 82.5313 67.6299 82.6268 67.6299L82.7223 68.9672C82.5313 69.1582 82.0537 69.2537 81.6716 69.2537C80.4298 69.2537 79.6656 68.8717 79.6656 67.9164Z" fill="white"/>
<path d="M88.6447 65.5283C88.6447 64.5731 88.0716 64 87.2119 64C86.0656 64 85.3014 65.0507 85.3014 66.197C85.3014 67.1522 85.8746 67.7253 86.8298 67.7253C87.8805 67.8209 88.6447 66.6746 88.6447 65.5283ZM83.582 66.388C83.582 64.3821 85.1104 62.5671 87.3074 62.5671C89.3134 62.5671 90.4596 63.8089 90.4596 65.4328C90.4596 67.4388 88.9313 69.2537 86.7343 69.2537C84.7283 69.2537 83.582 68.0119 83.582 66.388Z" fill="white"/>
<path d="M96.2865 65.5283C96.2865 64.5731 95.7134 64 94.8537 64C94.2806 64 93.7074 64.2865 93.4209 64.7642L92.9432 66.9612C93.2298 67.4388 93.8029 67.7253 94.4716 67.7253C95.5223 67.8209 96.2865 66.7701 96.2865 65.5283ZM92.6567 68.2985L91.8925 71.5462H90.1731L92.0835 62.7582H93.8029L93.6119 63.5224C94.185 62.8537 94.7582 62.5671 95.5223 62.5671C96.9552 62.5671 97.9104 63.5224 97.9104 65.2418C97.9104 67.1522 96.7641 69.2537 94.5671 69.2537C93.8029 69.2537 93.0388 68.8716 92.6567 68.2985Z" fill="white"/>
<path d="M106.985 62.185L104.788 66.0059H107.558L106.985 62.185ZM107.845 69.0627L107.654 67.5343H103.833L102.973 69.0627H100.776L106.125 60.2746H108.513L109.946 69.0627H107.845Z" fill="white"/>
<path d="M115.869 69.0627L117.493 61.994H114.913L115.2 60.2746H122.269L121.887 61.994H119.307L117.779 69.0627H115.869Z" fill="white"/>
<path d="M120.454 69.0627L121.887 62.6627H123.606L123.415 63.5224C123.988 62.9492 124.657 62.5671 125.707 62.5671L125.325 64.191C125.23 64.191 124.943 64.0955 124.752 64.0955C124.084 64.0955 123.51 64.4776 123.128 64.8597L122.173 69.0627H120.454Z" fill="white"/>
<path d="M129.337 67.6299L129.528 66.8657C129.242 66.4836 128.764 66.2926 128.095 66.2926C127.331 66.2926 126.854 66.7702 126.854 67.3433C126.854 67.9165 127.331 68.203 128 68.203C128.573 68.1075 129.051 67.9165 129.337 67.6299ZM129.051 69.0627L129.146 68.3941C128.669 68.8717 128.095 69.1582 127.236 69.1582C126.185 69.1582 125.134 68.5851 125.134 67.3433C125.134 65.9105 126.185 65.0508 127.522 65.0508C128.478 65.0508 129.146 65.3373 129.719 65.9105L129.91 65.1463C129.91 65.0508 129.91 64.9553 129.91 64.8597C129.91 64.2866 129.337 63.9045 128.382 63.9045C127.713 63.9045 127.14 64.0956 126.567 64.4776L126.185 63.2359C126.949 62.6627 127.809 62.4717 128.669 62.4717C130.197 62.4717 131.534 63.0448 131.534 64.4776C131.534 64.6687 131.534 64.9553 131.439 65.1463L130.579 68.9672H129.051V69.0627Z" fill="white"/>
<path d="M136.406 69.0627L137.266 65.1462C137.266 65.0507 137.361 64.8597 137.361 64.7642C137.361 64.191 136.884 64 136.31 64C135.737 64 135.164 64.3821 134.782 64.7642L133.827 69.0627H132.107L133.54 62.6627H135.26L135.069 63.5224C135.546 63.0448 136.215 62.5671 137.17 62.5671C138.412 62.5671 139.176 63.2358 139.176 64.191C139.176 64.2865 139.176 64.5731 139.081 64.7642L138.125 69.1582H136.406V69.0627Z" fill="white"/>
<path d="M144.907 65.3373V65.2418C144.907 64.5731 144.43 64 143.379 64C142.424 64 141.755 64.6686 141.66 65.3373H144.907ZM139.94 66.388C139.94 64.2865 141.469 62.5671 143.666 62.5671C145.29 62.5671 146.531 63.6179 146.531 65.4328C146.531 65.8149 146.436 66.2925 146.436 66.4836H141.66V66.6746C141.66 67.2477 142.233 67.9164 143.379 67.9164C143.952 67.9164 144.621 67.7253 145.003 67.4388L145.481 68.5851C144.812 68.9671 144.048 69.2537 143.188 69.2537C141.182 69.2537 139.94 68.203 139.94 66.388Z" fill="white"/>
<path d="M146.245 68.2985C146.245 67.6298 146.818 67.1522 147.391 67.1522C147.964 67.1522 148.346 67.6298 148.346 68.1074C148.346 68.7761 147.773 69.2537 147.2 69.2537C146.722 69.2537 146.245 68.7761 146.245 68.2985Z" fill="white"/>
<path d="M149.015 61.7074H148.633L148.442 62.3761H148.919C149.206 62.3761 149.302 62.185 149.302 61.994C149.302 61.8029 149.206 61.7074 149.015 61.7074ZM149.015 63.3313L148.728 62.5671H148.442L148.251 63.3313H147.964L148.346 61.5164H149.015C149.397 61.5164 149.588 61.7074 149.588 61.994C149.588 62.3761 149.302 62.5671 149.015 62.5671L149.302 63.3313H149.015ZM148.728 61.0388C147.964 61.0388 147.391 61.6119 147.391 62.3761C147.391 63.1403 147.964 63.7134 148.728 63.7134C149.493 63.7134 150.066 63.1403 150.066 62.3761C150.066 61.6119 149.493 61.0388 148.728 61.0388ZM148.728 64C147.869 64 147.104 63.2358 147.104 62.3761C147.104 61.5164 147.869 60.7522 148.728 60.7522C149.588 60.7522 150.352 61.4209 150.352 62.3761C150.352 63.2358 149.684 64 148.728 64Z" fill="white"/>
</svg>